<svg xmlns="http://www.w3.org/2000/svg" xmlns:xlink="http://www.w3.org/1999/xlink" fill="none" version="1.1" width="78" height="78" viewBox="0 0 78 78"><script xmlns=""/><defs><linearGradient x1="0.5" y1="0" x2="0.5" y2="1" id="master_svg0_0_44291"><stop offset="0%" stop-color="#19EBFF" stop-opacity="0"/><stop offset="100%" stop-color="#19EBFF" stop-opacity="1"/></linearGradient><linearGradient x1="0.5" y1="0" x2="0.5" y2="1" id="master_svg1_0_44291"><stop offset="0%" stop-color="#19EBFF" stop-opacity="0"/><stop offset="100%" stop-color="#19EBFF" stop-opacity="1"/></linearGradient></defs><g style="mix-blend-mode:passthrough"><g style="mix-blend-mode:passthrough"><g style="mix-blend-mode:passthrough"><ellipse cx="39" cy="39" rx="38" ry="38" fill-opacity="0" stroke-opacity="1" stroke="#19EBFF" fill="none" stroke-width="2"/></g><g style="mix-blend-mode:passthrough"><g style="opacity:0.2199999988079071;mix-blend-mode:passthrough"><ellipse cx="38.99999809265137" cy="38.99999809265137" rx="33.81215286254883" ry="33.81215286254883" fill-opacity="0" stroke-opacity="0.2199999988079071" stroke="#19EBFF" fill="none" stroke-width="3.200000047683716"/></g><g style="mix-blend-mode:passthrough"><path d="M38.99999809265137,3.587845230102539Q46.203518092651365,3.587845230102539,52.78449809265137,6.371365230102539Q59.13979809265137,9.05941523010254,64.04019809265137,13.959825230102538Q68.94059809265137,18.86024523010254,71.62859809265137,25.21554523010254Q74.41219809265137,31.796445230102538,74.41219809265137,39.000045230102536L71.21219809265136,39.000045230102536Q71.21219809265136,32.445445230102536,68.68139809265136,26.46204523010254Q66.23649809265137,20.68164523010254,61.77739809265137,16.22254523010254Q57.318398092651364,11.763495230102539,51.53789809265137,9.318575230102539Q45.554608092651364,6.787845230102539,38.99999809265137,6.787845230102539L38.99999809265137,3.587845230102539Z" fill="url(#master_svg0_0_44291)" fill-opacity="1"/></g><g style="mix-blend-mode:passthrough"><path d="M39.000045230102536,74.41219809265137Q31.796445230102538,74.41219809265137,25.21554523010254,71.62859809265137Q18.86024523010254,68.94059809265137,13.959825230102538,64.04019809265137Q9.05941523010254,59.13979809265137,6.371365230102539,52.78449809265137Q3.587845230102539,46.203518092651365,3.587845230102539,38.999994277951366L6.787845230102539,38.999994277951366Q6.787845230102539,45.554608092651364,9.318585230102538,51.53789809265137Q11.763495230102539,57.318398092651364,16.22254523010254,61.77739809265137Q20.68164523010254,66.23649809265137,26.46204523010254,68.68139809265136Q32.445445230102536,71.21219809265136,39.000045230102536,71.21219809265136L39.000045230102536,74.41219809265137Z" fill="url(#master_svg1_0_44291)" fill-opacity="1"/></g><g style="mix-blend-mode:passthrough"><path d="M70.52859867248534,55.1392178951416Q67.88149867248535,60.3005218951416,63.71409867248535,64.3620318951416Q59.54225867248535,68.4279518951416,54.30953667248535,70.9404518951416L52.92445667248535,68.0557518951416Q57.68437867248535,65.7702518951416,61.48068867248535,62.0703818951416Q65.27309867248535,58.3743018951416,67.68119867248535,53.678885895141605L70.52859867248534,55.1392178951416Z" fill="#FF9F43" fill-opacity="1"/></g></g><g style="mix-blend-mode:passthrough"><ellipse cx="38.999999046325684" cy="38.999999046325684" rx="30.718231201171875" ry="30.718231201171875" fill="#003E59" fill-opacity="0.699999988079071"/><ellipse cx="38.999999046325684" cy="38.999999046325684" rx="30.218231201171875" ry="30.218231201171875" fill-opacity="0" stroke-opacity="0.4000000059604645" stroke="#23FEFF" fill="none" stroke-width="1"/></g><g style="mix-blend-mode:passthrough"><path d="M36.47084573516845,9.273141735168457Q36.97374573516846,9.230354035168457,37.47784573516846,9.204602435168457L37.57984573516846,11.201995735168456Q37.10954573516845,11.226025735168458,36.64034573516845,11.265945735168458L36.47084573516845,9.273141735168457ZM34.49154573516846,9.508358735168457Q34.98594573516846,9.432790735168457,35.482445735168454,9.373831735168457L35.71824573516845,11.359885735168458Q35.25494573516846,11.414885735168458,34.79384573516846,11.485385735168457L34.49154573516846,9.508358735168457ZM32.52504573516846,9.876854735168457Q33.00934573516845,9.769172735168457,33.497045735168456,9.677655735168457L33.86594573516845,11.643335735168456Q33.410945735168454,11.728725735168457,32.95904573516846,11.829185735168457L32.52504573516846,9.876854735168457ZM30.581445735168458,10.378145735168458Q31.063845735168456,10.236245735168456,31.55084573516846,10.110682735168457L32.05024573516846,12.047335735168456Q31.595945735168456,12.164485735168457,31.145745735168457,12.296875735168458L30.581445735168458,10.378145735168458ZM28.685745735168457,11.005375735168457Q29.156145735168458,10.832065735168458,29.632145735168457,10.674645735168458L30.260145735168457,12.573495735168457Q29.81604573516846,12.720365735168457,29.377145735168458,12.882055735168457L28.685745735168457,11.005375735168457ZM26.833445735168457,11.759245735168458Q27.288345735168456,11.556105735168456,27.749645735168457,11.368265735168457L28.503845735168458,13.220615735168458Q28.073445735168455,13.395865735168456,27.649045735168457,13.585385735168458L26.833445735168457,11.759245735168458ZM25.031045735168455,12.638085735168456Q25.474345735168455,12.403185735168456,25.925245735168456,12.183315735168456L26.801745735168456,13.981035735168458Q26.381045735168456,14.186155735168457,25.967445735168457,14.405305735168458L25.031045735168455,12.638085735168456ZM23.297145735168456,13.632615735168457Q23.72314573516846,13.368935735168456,24.157745735168458,13.119715735168457L25.15274573516846,14.854645735168457Q24.747245735168455,15.087165735168458,24.349845735168458,15.333175735168457L23.297145735168456,13.632615735168457ZM21.632045735168457,14.742285735168457Q22.038045735168456,14.451625735168456,22.453445735168458,14.174725735168458L23.562745735168455,15.838925735168457Q23.175045735168457,16.097285735168455,22.796345735168458,16.368465735168456L21.632045735168457,14.742285735168457ZM20.043345735168458,15.962485735168457Q20.43034573516846,15.643995735168456,20.82784573516846,15.338695735168457L22.046045735168455,16.92488573516846Q21.675245735168456,17.20969573516846,21.31414573516846,17.506845735168458L20.043345735168458,15.962485735168457ZM18.542345735168457,17.284405735168455Q18.90659573516846,16.941255735168458,19.282145735168456,16.610505735168456L20.60394573516846,18.111435735168456Q20.25354573516846,18.420015735168455,19.913745735168455,18.740145735168458L18.542345735168457,17.284405735168455ZM17.131945735168458,18.70539573516846Q17.472515735168457,18.338425735168457,17.825195735168457,17.98308573516846L19.244745735168458,19.391945735168456Q18.915655735168457,19.723545735168457,18.597915735168456,20.06584573516846L17.131945735168458,18.70539573516846ZM15.821515735168457,20.215945735168457Q16.136205735168456,19.827645735168456,16.463725735168456,19.45004573516846L17.974495735168457,20.76064573516846Q17.668945735168457,21.112845735168456,17.37532573516846,21.475145735168457L15.821515735168457,20.215945735168457ZM14.613195735168457,21.813745735168457Q14.901445735168457,21.404745735168458,15.203245735168457,21.005645735168457L16.79849573516846,22.211945735168456Q16.516945735168456,22.58424573516846,16.248025735168458,22.965845735168458L14.613195735168457,21.813745735168457ZM13.515555735168457,23.487845735168456Q13.776715735168457,23.058845735168457,14.052165735168458,22.63884573516846L15.724585735168457,23.735645735168458Q15.467595735168457,24.127445735168457,15.223955735168456,24.52774573516846L13.515555735168457,23.487845735168456ZM12.534985735168457,25.227345735168456Q12.764975735168457,24.78544573516846,13.009595735168457,24.351445735168458L14.751905735168457,25.333445735168457Q14.523695735168456,25.73834573516846,14.309125735168458,26.150645735168457L12.534985735168457,25.227345735168456ZM11.669195735168458,27.03714573516846Q11.869905735168457,26.578545735168458,12.085895735168457,26.12704573516846L13.890135735168457,26.989945735168458Q13.688635735168457,27.411245735168457,13.501375735168457,27.839145735168458L11.669195735168458,27.03714573516846ZM10.928655735168457,28.896445735168456Q11.099175735168457,28.42264573516846,11.285595735168457,27.95484573516846L13.143485735168458,28.695345735168456Q12.969565735168457,29.131745735168458,12.810475735168456,29.57374573516846L10.928655735168457,28.896445735168456ZM10.316645735168457,30.793445735168458Q10.453215735168456,30.31614573516846,10.605585735168457,29.84354573516846L12.509055735168456,30.457445735168456Q12.366895735168457,30.89824573516846,12.239495735168457,31.34354573516846L10.316645735168457,30.793445735168458ZM9.829459735168458,32.74204573516846Q9.934327735168457,32.253245735168456,10.055514735168456,31.768145735168456L11.995865735168458,32.25294573516845Q11.882805735168457,32.70544573516845,11.784965735168457,33.16154573516846L9.829459735168458,32.74204573516846ZM9.475346735168458,34.71304573516846Q9.547824735168456,34.21394573516846,9.637136735168458,33.717445735168454L11.605535735168457,34.07164573516846Q11.522205735168457,34.53474573516846,11.454595735168457,35.000445735168455L9.475346735168458,34.71304573516846ZM9.254822835168458,36.69624573516846Q9.293367735168458,36.19854573516846,9.348540735168458,35.70244573516845L11.336285735168456,35.92354573516846Q11.284815735168458,36.38634573516846,11.248855735168457,36.85074573516846L9.254822835168458,36.69624573516846ZM9.167315745168457,38.693945735168455Q9.172412125168456,38.19714573516846,9.194043935168457,37.70084573516846L11.192145735168458,37.78794573516846Q11.171965735168456,38.25094573516846,11.167205735168457,38.714445735168454L9.167315745168457,38.693945735168455ZM9.212970135168456,40.67794573516846Q9.184890335168458,40.17954573516846,9.173504715168457,39.68034573516846L11.172985735168457,39.63474573516846Q11.183605735168458,40.10044573516846,11.209805735168457,40.56544573516845L9.212970135168456,40.67794573516846ZM9.392465735168457,42.671045735168455Q9.331528735168456,42.17954573516846,9.286935735168457,41.68634573516846L11.278815735168457,41.50634573516846Q11.320405735168457,41.966445735168456,11.377265735168457,42.42494573516846L9.392465735168457,42.671045735168455ZM9.706367735168458,44.65384573516846Q9.611032735168457,44.15984573516846,9.532404735168457,43.66294573516846L11.507825735168456,43.35044573516846Q11.581185735168457,43.81394573516846,11.670125735168456,44.274845735168455L9.706367735168458,44.65384573516846ZM10.150168735168457,46.600645735168456Q10.022343735168457,46.11544573516846,9.910905735168457,45.62624573516846L11.860955735168456,45.18204573516846Q11.964915735168457,45.63844573516846,12.084175735168458,46.09114573516846L10.150168735168457,46.600645735168456ZM10.723795735168457,48.515245735168456Q10.564975735168456,48.043245735168455,10.421985735168457,47.56624573516846L12.337765735168457,46.99194573516846Q12.471175735168456,47.43694573516846,12.619365735168458,47.877345735168454L10.723795735168457,48.515245735168456ZM11.426845735168456,50.39314573516846Q11.235525735168457,49.93014573516846,11.059855735168457,49.46094573516846L12.932885735168457,48.759645735168455Q13.096765735168457,49.197345735168454,13.275265735168457,49.62934573516846L11.426845735168456,50.39314573516846ZM12.252175735168457,52.21504573516846Q12.029955735168457,51.765245735168456,11.822975735168457,51.308245735168455L13.644855735168457,50.483145735168456Q13.837945735168457,50.90954573516846,14.045265735168456,51.32914573516846L12.252175735168457,52.21504573516846ZM13.197375735168457,53.97684573516846Q12.946825735168456,53.54524573516846,12.710855735168458,53.10544573516846L14.473205735168456,52.15984573516846Q14.693365735168456,52.57014573516846,14.927115735168456,52.972845735168455L13.197375735168457,53.97684573516846ZM14.260995735168457,55.67524573516846Q13.980995735168456,55.259845735168454,13.715095735168457,54.835245735168456L15.410105735168457,53.773745735168454Q15.658185735168457,54.16984573516846,15.919435735168456,54.55744573516846L14.260995735168457,55.67524573516846ZM15.433925735168458,57.29544573516846Q15.126785735168458,56.899845735168455,14.833095735168456,56.494045735168456L16.453185735168457,55.32134573516846Q16.72715573516846,55.69984573516846,17.013715735168457,56.068945735168455L15.433925735168458,57.29544573516846ZM16.71356573516846,58.83424573516846Q16.381155735168456,58.46074573516846,16.061445735168455,58.07634573516846L17.599185735168454,56.797545735168455Q17.897435735168457,57.15614573516846,18.207575735168454,57.50464573516846L16.71356573516846,58.83424573516846ZM18.093815735168455,60.28414573516846Q17.736615735168456,59.933245735168455,17.391385735168456,59.570645735168455L18.83997573516846,58.19164573516846Q19.162045735168455,58.529945735168454,19.495245735168456,58.857245735168455L18.093815735168455,60.28414573516846ZM19.567745735168458,61.637845735168455Q19.188145735168455,61.31194573516846,18.819685735168456,60.97354573516846L20.172545735168455,59.50054573516846Q20.516245735168457,59.816145735168455,20.87044573516846,60.12024573516846L19.567745735168458,61.637845735168455ZM21.13004573516846,62.89034573516846Q20.728545735168456,62.59004573516846,20.33744573516846,62.276345735168455L21.588445735168456,60.71604573516846Q21.953445735168458,61.008545735168454,22.327945735168456,61.288745735168455L21.13004573516846,62.89034573516846ZM22.769445735168457,64.03304573516846Q22.350545735168456,63.76144573516846,21.940945735168455,63.47594573516846L23.084545735168454,61.83514573516846Q23.466645735168456,62.101445735168454,23.857545735168458,62.35484573516846L22.769445735168457,64.03304573516846ZM24.486745735168455,65.06624573516845Q24.049745735168457,64.82294573516846,23.621145735168454,64.56514573516846L24.652145735168457,62.85134573516846Q25.052045735168456,63.091845735168455,25.459645735168458,63.31884573516846L24.486745735168455,65.06624573516845ZM26.267845735168457,65.98104573516846Q25.81294573516846,65.76634573516846,25.365545735168457,65.53644573516846L26.27954573516846,63.757545735168456Q26.696945735168455,63.97204573516846,27.121445735168457,64.17224573516846L26.267845735168457,65.98104573516846ZM28.099745735168458,66.77164573516845Q27.636345735168458,66.58984573516847,27.179345735168457,66.39254573516845L27.971745735168458,64.55624573516846Q28.398145735168455,64.74024573516846,28.830445735168457,64.90994573516846L28.099745735168458,66.77164573516845ZM29.991045735168456,67.44154573516846Q29.514545735168458,67.29064573516845,29.043345735168458,67.12384573516846L29.71084573516846,65.23844573516845Q30.150445735168457,65.39414573516845,30.59494573516846,65.53494573516846L29.991045735168456,67.44154573516846ZM31.91964573516846,67.98194573516847Q31.430045735168456,67.86234573516845,30.944845735168457,67.72624573516845L31.484845735168456,65.80054573516846Q31.937545735168456,65.92744573516845,32.394245735168454,66.03904573516846L31.91964573516846,67.98194573516847ZM33.87254573516846,68.39034573516847Q33.381245735168456,68.30464573516846,32.89314573516846,68.20254573516846L33.30254573516846,66.24494573516846Q33.757945735168455,66.34014573516845,34.21634573516846,66.42014573516846L33.87254573516846,68.39034573516847ZM35.85554573516846,68.66804573516845Q35.360445735168454,68.61564573516846,34.86724573516845,68.54664573516845L35.14434573516846,66.56594573516846Q35.60434573516846,66.63024573516846,36.066345735168454,66.67924573516845L35.85554573516846,68.66804573516845ZM37.85604573516846,68.81234573516846Q37.354045735168455,68.79304573516845,36.85304573516846,68.75694573516846L36.997045735168456,66.76204573516846Q37.46434573516846,66.79584573516846,37.93264573516846,66.81374573516845L37.85604573516846,68.81234573516846ZM39.83464573516846,68.82254573516846Q39.41734573516845,68.83424573516845,39.000045735168456,68.83424573516845Q38.92354573516846,68.83424573516845,38.84714573516845,68.83384573516847L38.85224573516845,66.83384573516847L39.000045735168456,66.83424573516845Q39.38934573516846,66.83424573516845,39.77864573516845,66.82334573516846L39.83464573516846,68.82254573516846ZM41.838845735168455,68.69884573516845Q41.337145735168455,68.74684573516845,40.83404573516846,68.77784573516846L40.711045735168454,66.78164573516847Q41.18034573516846,66.75274573516846,41.648545735168454,66.70794573516847L41.838845735168455,68.69884573516845ZM43.817645735168455,68.44274573516846Q43.32244573516846,68.52374573516846,42.824745735168456,68.58804573516846L42.56844573516846,66.60454573516846Q43.032745735168454,66.54454573516846,43.49474573516846,66.46894573516846L43.817645735168455,68.44274573516846ZM45.777645735168456,68.05424573516845Q45.29294573516846,68.16724573516845,44.80474573516846,68.26414573516846L44.41554573516846,66.30234573516846Q44.87104573516846,66.21194573516846,45.323245735168456,66.10644573516845L45.777645735168456,68.05424573516845ZM47.713845735168455,67.53334573516847Q47.23534573516846,67.67944573516846,46.752145735168455,67.80944573516845L46.232445735168454,65.87814573516846Q46.68314573516846,65.75694573516846,47.12964573516846,65.62054573516846L47.713845735168455,67.53334573516847ZM49.60754573516846,66.88484573516845Q49.137845735168455,67.06344573516846,48.662445735168454,67.22624573516845L48.014745735168454,65.33404573516846Q48.45814573516846,65.18224573516846,48.89634573516846,65.01554573516846L49.60754573516846,66.88484573516845ZM51.449745735168456,66.11244573516845Q50.996145735168454,66.32074573516846,50.53584573516846,66.51374573516846L49.762445735168455,64.66934573516846Q50.19184573516846,64.48924573516845,50.615145735168454,64.29494573516845L51.449745735168456,66.11244573516845ZM53.241645735168454,65.21564573516847Q52.802245735168455,65.45434573516846,52.35504573516846,65.67814573516846L51.45984573516846,63.889745735168454Q51.876945735168455,63.68094573516846,52.28694573516846,63.45814573516846L53.241645735168454,65.21564573516847ZM54.967445735168454,64.20164573516846Q54.543645735168454,64.47014573516846,54.111145735168456,64.72424573516847L53.098245735168454,62.99974573516846Q53.501745735168456,62.762645735168455,53.897045735168454,62.512245735168456L54.967445735168454,64.20164573516846ZM56.619845735168454,63.07544573516846Q56.21654573516846,63.370545735168456,55.80364573516846,63.65204573516846L54.67714573516846,61.99944573516846Q55.06244573516846,61.736745735168455,55.43864573516846,61.46144573516845L56.619845735168454,63.07544573516846ZM58.195445735168455,61.83894573516846Q57.81214573516846,62.16104573516846,57.418245735168455,62.47014573516846L56.18354573516846,60.896845735168455Q56.55104573516846,60.60844573516846,56.908645735168456,60.307845735168456L58.195445735168455,61.83894573516846ZM59.683045735168456,60.501045735168454Q59.322345735168454,60.848045735168455,58.950145735168455,61.18274573516846L57.61274573516846,59.695645735168455Q57.95994573516845,59.383345735168454,58.29654573516846,59.05964573516846L59.683045735168456,60.501045735168454ZM61.07844573516846,59.06544573516846Q60.74174573516846,59.43594573516846,60.39284573516846,59.79484573516846L58.958745735168456,58.40084573516846Q59.284245735168454,58.06604573516846,59.59834573516846,57.72034573516846L61.07844573516846,59.06544573516846ZM62.37364573516846,57.540645735168454Q62.06264573516846,57.93274573516846,61.738645735168454,58.31414573516846L60.21434573516846,57.01934573516846Q60.51664573516846,56.66344573516846,60.806745735168455,56.297745735168455L62.37364573516846,57.540645735168454ZM63.56434573516846,55.931545735168456Q63.28054573516846,56.343145735168456,62.98324573516846,56.74504573516846L61.375445735168455,55.555445735168455Q61.652845735168455,55.18054573516846,61.91754573516846,54.79654573516846L63.56434573516846,55.931545735168456ZM64.64504573516845,54.24514573516846Q64.38854573516846,54.67654573516846,64.11774573516846,55.099145735168456L62.43394573516846,54.01984573516846Q62.686645735168455,53.625645735168455,62.92584573516846,53.22314573516846L64.64504573516845,54.24514573516846ZM65.60774573516846,52.49494573516846Q65.38184573516845,52.94014573516846,65.14124573516845,53.37764573516846L63.38884573516846,52.413745735168455Q63.61334573516846,52.00564573516846,63.82394573516846,51.59024573516846L65.60774573516846,52.49494573516846ZM66.45354573516846,50.678345735168456Q66.25804573516845,51.13814573516846,66.04714573516846,51.59104573516846L64.23404573516845,50.74694573516846Q64.43064573516845,50.32444573516846,64.61314573516846,49.89544573516846L66.45354573516846,50.678345735168456ZM67.17544573516847,48.809545735168456Q67.01004573516846,49.28464573516845,66.82864573516846,49.75394573516846L64.96314573516847,49.03304573516846Q65.13234573516846,48.595245735168454,65.28664573516846,48.151945735168454L67.17544573516847,48.809545735168456ZM67.76834573516845,46.90364573516846Q67.63604573516847,47.384845735168454,67.48784573516846,47.86144573516846L65.57814573516845,47.267345735168455Q65.71634573516846,46.82284573516846,65.83974573516846,46.373745735168455L67.76834573516845,46.90364573516846ZM68.23374573516845,44.955745735168456Q68.13424573516846,45.444145735168455,68.01844573516846,45.928945735168455L66.07314573516845,45.464445735168454Q66.18114573516846,45.01214573516846,66.27394573516845,44.556545735168456L68.23374573516845,44.955745735168456ZM68.56774573516846,42.978645735168456Q68.50074573516846,43.47684573516846,68.41694573516845,43.97254573516846L66.44494573516846,43.639145735168455Q66.52314573516846,43.17674573516846,66.58564573516846,42.711945735168456L68.56774573516846,42.978645735168456ZM68.76774573516846,40.99034573516846Q68.73424573516846,41.491645735168454,68.68384573516846,41.99154573516846L66.69394573516846,41.79094573516846Q66.74094573516845,41.324545735168456,66.77224573516845,40.85694573516845L68.76774573516846,40.99034573516846ZM68.83424573516845,39.000045735168456Q68.83424573516845,39.49474573516846,68.81784573516845,39.98914573516846L66.81894573516846,39.92284573516846Q66.83424573516845,39.46154573516846,66.83424573516845,39.000045735168456L68.83424573516845,39.000045735168456ZM68.80294573516846,37.63334573516846Q68.82574573516845,38.13004573516846,68.83194573516846,38.62724573516846L66.83204573516846,38.65224573516846Q66.82624573516846,38.18844573516846,66.80504573516845,37.72494573516846L68.80294573516846,37.63334573516846ZM68.64394573516846,35.63584573516846Q68.70014573516846,36.13114573516846,68.73984573516846,36.628045735168456L66.74614573516845,36.78704573516846Q66.70914573516845,36.323445735168455,66.65674573516846,35.861345735168456L68.64394573516846,35.63584573516846ZM68.35064573516846,33.65004573516846Q68.44114573516845,34.146645735168455,68.51484573516845,34.64604573516846L66.53624573516845,34.93784573516845Q66.46754573516846,34.47204573516846,66.38304573516845,34.00864573516846L68.35064573516846,33.65004573516846ZM67.92794573516846,31.702345735168457Q68.05034573516846,32.187345735168456,68.15634573516846,32.67624573516846L66.20184573516846,33.10024573516846Q66.10284573516846,32.64414573516846,65.98874573516846,32.19154573516846L67.92794573516846,31.702345735168457ZM67.37364573516845,29.77954573516846Q67.52714573516846,30.251845735168455,67.66484573516846,30.72914573516846L65.74324573516846,31.283645735168456Q65.61484573516846,30.838345735168456,65.47154573516846,30.397645735168457L67.37364573516845,29.77954573516846ZM66.68954573516845,27.892645735168458Q66.87684573516846,28.359545735168457,67.04824573516845,28.832545735168456L65.16794573516846,29.51414573516846Q65.00804573516845,29.072945735168457,64.83334573516845,28.637245735168456L66.68954573516845,27.892645735168458ZM65.88474573516845,26.065845735168455Q66.10184573516847,26.517045735168455,66.30364573516846,26.975345735168457L64.47334573516846,27.781445735168457Q64.28504573516847,27.353945735168455,64.08244573516845,26.932945735168456L65.88474573516845,26.065845735168455ZM64.95724573516846,24.292645735168456Q65.20284573516847,24.726245735168455,65.43394573516846,25.167845735168456L63.661845735168455,26.09504573516846Q63.44634573516846,25.683145735168456,63.21714573516846,25.278645735168457L64.95724573516846,24.292645735168456ZM63.91084573516846,22.58254573516846Q64.18714573516846,23.001745735168456,64.44914573516846,23.430045735168456L62.743145735168454,24.473845735168457Q62.49864573516846,24.074245735168457,62.240845735168456,23.68314573516846L63.91084573516846,22.58254573516846ZM62.75584573516846,20.951645735168455Q63.058645735168454,21.350145735168457,63.347845735168455,21.758645735168457L61.71564573516846,22.914445735168457Q61.44574573516846,22.533345735168457,61.163345735168456,22.161545735168456L62.75584573516846,20.951645735168455ZM61.49194573516846,19.399045735168457Q61.820245735168456,19.775845735168456,62.13584573516846,20.16344573516846L60.58484573516846,21.426145735168458Q60.29054573516846,21.064645735168455,59.984145735168454,20.713045735168457L61.49194573516846,19.399045735168457ZM60.12704573516846,17.935125735168455Q60.480545735168455,18.289665735168455,60.821945735168455,18.655875735168458L59.359145735168454,20.019645735168456Q59.04054573516846,19.678045735168457,58.710845735168455,19.347245735168457L60.12704573516846,17.935125735168455ZM58.66704573516846,16.565905735168457Q59.04334573516846,16.895775735168456,59.40834573516846,17.238075735168458L58.040245735168455,18.69693573516846Q57.699745735168456,18.37758573516846,57.34864573516845,18.069815735168458L58.66704573516846,16.565905735168457ZM57.118345735168454,15.297505735168457Q57.51664573516846,15.601975735168457,57.904545735168455,15.919655735168458L56.637245735168456,17.466885735168457Q56.27534573516846,17.170525735168457,55.90374573516846,16.886465735168457L57.118345735168454,15.297505735168457ZM55.49044573516846,14.137435735168456Q55.906445735168454,14.413345735168457,56.312945735168455,14.703025735168456L55.15234573516846,16.33181573516846Q54.773145735168455,16.061575735168457,54.38494573516846,15.804145735168458L55.49044573516846,14.137435735168456ZM53.783645735168456,13.086185735168456Q54.21864573516846,13.334355735168458,54.645145735168455,13.596985735168456L53.596345735168455,15.299925735168458Q53.198445735168455,15.054895735168458,52.792645735168456,14.823365735168457L53.783645735168456,13.086185735168456ZM52.01364573516846,12.153625735168458Q52.46544573516846,12.372615735168457,52.90954573516846,12.606685735168456L51.977145735168456,14.376015735168458Q51.562745735168455,14.157635735168457,51.141245735168454,13.953325735168457L52.01364573516846,12.153625735168458ZM50.188145735168455,11.343045735168456Q50.64974573516846,11.529765735168457,51.10484573516846,11.731795735168458L50.293445735168454,13.559775735168458Q49.868845735168456,13.371305735168457,49.438145735168455,13.197075735168458L50.188145735168455,11.343045735168456ZM48.30384573516846,10.653545735168457Q48.779945735168454,10.809805735168457,49.250445735168455,10.981955735168457L48.563345735168454,12.860205735168456Q48.12424573516846,12.699585735168457,47.68014573516846,12.553805735168456L48.30384573516846,10.653545735168457ZM46.383345735168454,10.093784735168457Q46.87104573516846,10.218365735168456,47.35434573516846,10.359335735168457L46.794345735168456,12.279325735168456Q46.34344573516846,12.147805735168458,45.88834573516846,12.031575735168456L46.383345735168454,10.093784735168457ZM44.43744573516846,9.665432735168457Q44.92494573516846,9.755798735168456,45.409245735168454,9.862314735168457L44.97954573516846,11.815615735168457Q44.52774573516846,11.716245735168457,44.07294573516846,11.631935735168458L44.43744573516846,9.665432735168457ZM42.45084573516846,9.365988735168457Q42.947145735168455,9.423785735168456,43.44124573516846,9.498172735168456L43.14354573516846,11.475885735168458Q42.68254573516846,11.406485735168458,42.219445735168456,11.352565735168458L42.45084573516846,9.365988735168457ZM40.45454573516845,9.201223435168457Q40.95824573516846,9.225809435168458,41.46074573516846,9.267404735168457L41.295845735168456,11.260585735168457Q40.82694573516846,11.221785735168456,40.357045735168455,11.198845735168458L40.45454573516845,9.201223435168457ZM39.45954573516846,9.169285725168457L39.42874573516846,11.169045735168456Q39.214445735168454,11.165745735168457,39.000045735168456,11.165745735168457Q38.75444573516846,11.165745735168457,38.50884573516846,11.170075735168457L38.47354573516846,9.170390335168458Q38.736745735168455,9.165745735168459,39.000045735168456,9.165745735168457Q39.22984573516845,9.165745735168457,39.45954573516846,9.169285725168457Z" fill-rule="evenodd" fill="#00E0DB" fill-opacity="1"/></g><g style="opacity:0.6000000238418579;mix-blend-mode:passthrough"><path d="M37.211946240234376,13.205544340234376Q37.71204624023437,13.170880340234374,38.21304624023438,13.155624240234374L38.27394624023437,15.154696240234376Q37.811646240234374,15.168776240234376,37.35024624023438,15.200756240234375L37.211946240234376,13.205544340234376ZM35.22514624023437,13.420679240234374Q35.71864624023438,13.347861240234375,36.21444624023437,13.294128240234375L36.42994624023437,15.282486240234375Q35.972446240234376,15.332066240234376,35.517146240234375,15.399256240234376L35.22514624023437,13.420679240234374ZM33.258546240234374,13.789156240234375Q33.74264624023438,13.678896240234375,34.230746240234375,13.587306240234374L34.59964624023438,15.552986240234375Q34.14934624023438,15.637496240234375,33.70264624023437,15.739226240234375L33.258546240234374,13.789156240234375ZM31.323946240234374,14.309326240234375Q31.801346240234373,14.160916240234375,32.284046240234375,14.031069240234375L32.803546240234375,15.962426240234375Q32.358146240234376,16.082236240234376,31.917646240234376,16.219166240234376L31.323946240234374,14.309326240234375ZM29.433746240234374,14.978376240234375Q29.901446240234375,14.792136240234376,30.376046240234373,14.624236240234374L31.043046240234375,16.509706240234376Q30.605246240234376,16.664616240234373,30.173746240234376,16.836466240234376L29.433746240234374,14.978376240234375ZM27.608346240234376,15.788336240234376Q28.058346240234375,15.567496240234375,28.516546240234376,15.364266240234375L29.327446240234377,17.192506240234376Q28.904646240234374,17.380006240234376,28.489546240234375,17.583766240234375L27.608346240234376,15.788336240234376ZM25.848446240234374,16.738206240234376Q26.278446240234373,16.484156240234377,26.717946240234376,16.246916240234377L27.667946240234375,18.006876240234376Q27.262446240234375,18.225776240234374,26.865746240234373,18.460156240234376L25.848446240234374,16.738206240234376ZM24.165246240234374,17.822606240234375Q24.574446240234373,17.535976240234376,24.994446240234375,17.265366240234375L26.077746240234376,18.946546240234376Q25.690246240234373,19.196226240234374,25.312746240234375,19.460696240234377L24.165246240234374,17.822606240234375ZM22.570876240234377,19.034156240234374Q22.957926240234375,18.715666240234377,23.357046240234375,18.412416240234375L24.567046240234376,20.004866240234374Q24.198846240234374,20.284666240234376,23.841646240234375,20.578536240234374L22.570876240234377,19.034156240234374ZM21.076646240234375,20.363896240234375Q21.437406240234374,20.016936240234376,21.811316240234376,19.684196240234375L23.140866240234374,21.178296240234374Q22.795876240234374,21.485286240234373,22.463026240234377,21.805406240234376L21.076646240234375,20.363896240234375ZM19.688676240234376,21.806286240234375Q20.021506240234373,21.432456240234373,20.368566240234376,21.071786240234374L21.809716240234373,22.458546240234377Q21.489516240234373,22.791296240234374,21.182416240234375,23.136226240234375L19.688676240234376,21.806286240234375ZM18.416496240234373,23.351646240234373Q18.719846240234375,22.952646240234372,19.038426240234376,22.565686240234378L20.582466240234375,23.836846240234372Q20.288536240234375,24.193946240234375,20.008646240234377,24.562046240234373L18.416496240234373,23.351646240234373ZM17.269036240234374,24.988746240234377Q17.539746240234376,24.568846240234375,17.826466240234375,24.159746240234377L19.464246240234374,25.307646240234376Q19.199706240234377,25.685146240234374,18.949936240234376,26.072446240234378L17.269036240234374,24.988746240234377ZM16.250096240234374,26.712046240234375Q16.487466240234376,26.272646240234373,16.741636240234374,25.842646240234373L18.463326240234373,26.860346240234374Q18.228826240234376,27.257046240234374,18.009816240234375,27.662546240234377L16.250096240234374,26.712046240234375ZM15.366996240234375,28.510346240234377Q15.570356240234375,28.052246240234375,15.791316240234375,27.602246240234376L17.586516240234374,28.483846240234374Q17.382646240234376,28.899046240234377,17.195016240234374,29.321746240234376L15.366996240234375,28.510346240234377ZM14.626486240234374,30.369646240234374Q14.794496240234375,29.895146240234375,14.980846240234374,29.427546240234374L16.838736240234375,30.168046240234375Q16.666806240234376,30.599446240234375,16.511786240234375,31.037246240234374L14.626486240234374,30.369646240234374ZM14.032835240234375,32.27754624023437Q14.162796240234375,31.794846240234374,14.311316240234374,31.317546240234375L16.220996240234374,31.911746240234375Q16.083966240234375,32.352146240234376,15.964056240234374,32.797546240234375L14.032835240234375,32.27754624023437ZM13.588532240234375,34.224146240234376Q13.680255240234375,33.736146240234376,13.790649240234375,33.251946240234375L15.740606240234374,33.696546240234376Q15.638746240234376,34.143246240234376,15.554116240234375,34.59364624023438L13.588532240234375,34.224146240234376ZM13.294847240234375,36.207846240234375Q13.348713240234375,35.711946240234376,13.421667240234376,35.21844624023437L15.400166240234375,35.510946240234375Q15.332856240234374,35.966246240234376,15.283156240234375,36.423846240234376L13.294847240234375,36.207846240234375ZM13.155828840234374,38.206346240234375Q13.171216240234376,37.70524624023437,13.206015240234375,37.20514624023437L15.201186240234374,37.34404624023438Q15.169086240234375,37.805446240234374,15.154886240234376,38.26774624023437L13.155828840234374,38.206346240234375ZM13.170913340234375,40.18714624023438Q13.148106140234376,39.690946240234375,13.144375445234376,39.194146240234375L15.144316240234375,39.179146240234374Q15.147756240234376,39.637446240234375,15.168806240234375,40.09534624023438L13.170913340234375,40.18714624023438ZM13.340137240234375,42.181546240234375Q13.278992240234375,41.68844624023437,13.236839640234376,41.193346240234376L15.229626240234374,41.02364624023437Q15.268526240234376,41.48044624023437,15.324936240234376,41.93544624023437L13.340137240234375,42.181546240234375ZM13.663556240234374,44.159046240234375Q13.563624240234375,43.668246240234375,13.482773240234375,43.17394624023437L15.456546240234374,42.85114624023437Q15.531136240234375,43.307146240234374,15.623346240234374,43.75994624023437L13.663556240234374,44.159046240234375ZM14.139590240234375,46.10714624023438Q14.000984240234375,45.622246240234375,13.881387240234375,45.13244624023437L15.824316240234374,44.65804624023437Q15.934676240234374,45.110046240234375,16.062556240234375,45.557346240234374L14.139590240234375,46.10714624023438ZM14.761756240234375,48.003246240234375Q14.587186240234375,47.53324624023438,14.430966240234374,47.056946240234375L16.331396240234376,46.43374624023438Q16.475516240234374,46.87324624023437,16.636586240234376,47.30684624023438L14.761756240234375,48.003246240234375ZM15.529886240234376,49.849146240234376Q15.320456240234375,49.39614624023437,15.128666240234375,48.935346240234374L16.975116240234374,48.16684624023438Q17.152086240234375,48.59194624023438,17.345306240234375,49.00994624023438L15.529886240234376,49.849146240234376ZM16.439736240234375,51.632746240234376Q16.195996240234376,51.19744624023438,15.969226240234375,50.753046240234376L17.750656240234374,49.843946240234374Q17.959896240234375,50.25394624023438,18.184786240234374,50.65554624023437L16.439736240234375,51.632746240234376ZM17.485506240234375,53.341446240234376Q17.207306240234374,52.92414624023438,16.945496240234377,52.496346240234374L18.651426240234375,51.45234624023438Q18.892986240234375,51.84704624023438,19.149666240234374,52.23214624023438L17.485506240234375,53.341446240234376ZM18.658336240234377,54.96144624023437Q18.349096240234374,54.56734624023437,18.055346240234375,54.16154624023437L19.675436240234376,52.98884624023437Q19.946436240234377,53.36314624023437,20.231776240234375,53.72684624023437L18.658336240234377,54.96144624023437ZM19.953506240234375,56.48664624023438Q19.615196240234376,56.118146240234374,19.291396240234377,55.73684624023438L20.815856240234375,54.442246240234375Q21.114616240234376,54.79404624023437,21.426756240234376,55.134046240234376L19.953506240234375,56.48664624023438ZM21.363466240234374,57.907746240234374Q20.997336240234375,57.56624624023438,20.644706240234374,57.210846240234375L22.064506240234373,55.802246240234375Q22.389856240234373,56.130146240234374,22.727656240234374,56.445246240234376L21.363466240234374,57.907746240234374ZM22.877996240234374,59.21464624023437Q22.486906240234376,58.90274624023437,22.108176240234375,58.57594624023437L23.414746240234376,57.06174624023438Q23.764146240234375,57.363246240234375,24.125046240234376,57.65104624023437L22.877996240234374,59.21464624023437ZM24.489646240234375,60.400946240234376Q24.076046240234376,60.120546240234376,23.673546240234373,59.82424624023437L24.859046240234377,58.21354624023437Q25.230346240234375,58.48684624023438,25.612046240234378,58.745546240234376L24.489646240234375,60.400946240234376ZM26.189846240234374,61.45994624023437Q25.754646240234376,61.211746240234376,25.329446240234375,60.946946240234375L26.386846240234377,59.24924624023438Q26.779146240234375,59.493646240234376,27.180746240234377,59.72274624023437L26.189846240234374,61.45994624023437ZM27.965446240234375,62.383546240234374Q27.510846240234375,62.16904624023437,27.064846240234374,61.93694624023438L27.988046240234375,60.16274624023438Q28.399546240234375,60.376946240234375,28.819046240234375,60.57484624023437L27.965446240234375,62.383546240234374ZM29.804246240234374,63.16584624023437Q29.337246240234375,62.98814624023437,28.877546240234373,62.79254624023437L29.660546240234375,60.95224624023437Q30.084746240234374,61.132746240234376,30.515546240234375,61.296646240234374L29.804246240234374,63.16584624023437ZM31.698746240234374,63.80404624023438Q31.221346240234375,63.663546240234375,30.749646240234377,63.504746240234375L31.387846240234374,61.60934624023437Q31.823046240234376,61.755846240234376,32.263546240234376,61.88544624023437L31.698746240234374,63.80404624023438ZM33.642546240234374,64.29524624023438Q33.15344624023437,64.19164624023438,32.66874624023437,64.06924624023438L33.158446240234376,62.130146240234374Q33.605746240234375,62.24304624023438,34.056946240234375,62.338646240234375L33.642546240234374,64.29524624023438ZM35.61654624023437,64.63404624023437Q35.118146240234374,64.56824624023437,34.622646240234374,64.48314624023438L34.961246240234374,62.512046240234376Q35.418446240234374,62.590546240234374,35.878246240234375,62.65124624023437L35.61654624023437,64.63404624023437ZM37.608546240234375,64.81884624023436Q37.10474624023438,64.79174624023437,36.60244624023437,64.74494624023438L36.78784624023437,62.75354624023438Q37.25144624023437,62.79674624023438,37.716246240234376,62.821746240234376L37.608546240234375,64.81884624023436ZM39.59094624023437,64.84964624023438Q39.29554624023437,64.85634624023437,39.000046240234376,64.85634624023437Q38.80214624023438,64.85634624023437,38.60434624023438,64.85334624023437L38.63494624023437,62.85354624023437Q38.817646240234374,62.85634624023437,39.000046240234376,62.85634624023437Q39.27264624023438,62.85634624023437,39.54524624023438,62.85014624023437L39.59094624023437,64.84964624023438ZM41.59134624023437,64.72614624023439Q41.091246240234376,64.77654624023438,40.58944624023437,64.80744624023438L40.46654624023438,62.811246240234375Q40.92944624023437,62.782746240234374,41.39094624023437,62.73624624023437L41.59134624023437,64.72614624023439ZM43.57414624023437,64.44854624023438Q43.078146240234375,64.53774624023438,42.579046240234376,64.60744624023437L42.30214624023438,62.626746240234375Q42.762646240234375,62.562346240234376,43.22034624023438,62.48004624023437L43.57414624023437,64.44854624023438ZM45.523546240234374,64.01984624023437Q45.038746240234374,64.14624624023438,44.54934624023437,64.25384624023437L44.12014624023438,62.30044624023437Q44.571746240234376,62.20114624023437,45.01894624023437,62.084546240234374L45.523546240234374,64.01984624023437ZM47.43724624023437,63.44104624023438Q46.96594624023437,63.60374624023437,46.488646240234374,63.74814624023438L45.909446240234374,61.83384624023437Q46.349746240234374,61.70064624023438,46.78454624023438,61.550546240234375L47.43724624023437,63.44104624023438ZM49.303146240234376,62.714946240234376Q48.84604624023437,62.91344624023437,48.381646240234375,63.09434624023437L47.65594624023438,61.23064624023438Q48.08444624023438,61.06374624023437,48.50614624023437,60.880546240234374L49.303146240234376,62.714946240234376ZM51.10884624023438,61.84574624023438Q50.665446240234374,62.080746240234376,50.213246240234376,62.29834624023437L49.345946240234376,60.49624624023438Q49.76314624023438,60.29544624023438,50.172146240234376,60.07864624023438L51.10884624023438,61.84574624023438ZM52.838446240234376,60.841446240234376Q52.414846240234375,61.109846240234376,51.981146240234374,61.361546240234375L50.97704624023437,59.63194624023438Q51.377146240234374,59.399646240234375,51.768046240234376,59.15204624023438L52.838446240234376,60.841446240234376ZM54.48514624023438,59.706546240234374Q54.08464624023438,60.006046240234376,53.672946240234374,60.289846240234375L52.537946240234376,58.643046240234376Q52.917846240234375,58.381246240234375,53.28734624023438,58.104946240234376L54.48514624023438,59.706546240234374ZM56.04074624023438,58.44644624023437Q55.66474624023437,58.775946240234376,55.276346240234375,59.090546240234374L54.01744624023438,57.53654624023437Q54.37574624023438,57.24624624023438,54.72254624023437,56.942246240234375L56.04074624023438,58.44644624023437ZM57.49394624023437,57.070046240234376Q57.14394624023438,57.428146240234376,56.780446240234376,57.77254624023438L55.40514624023437,56.320446240234375Q55.74054624023437,56.00274624023437,56.06344624023438,55.672346240234376L57.49394624023437,57.070046240234376ZM58.835646240234375,55.586046240234374Q58.51484624023438,55.969646240234376,58.17944624023438,56.34064624023438L56.69594624023438,54.999346240234374Q57.005346240234374,54.657146240234376,57.30134624023437,54.30304624023437L58.835646240234375,55.586046240234374ZM60.059746240234375,54.00124624023437Q59.769246240234374,54.409046240234375,59.463246240234376,54.80534624023438L57.880346240234374,53.58274624023438Q58.16274624023438,53.21714624023438,58.43074624023438,52.84094624023437L60.059746240234375,54.00124624023437ZM61.157146240234376,52.32714624023438Q60.89824624023438,52.75744624023437,60.62294624023438,53.177446240234374L58.950346240234374,52.08084624023437Q59.204446240234375,51.693346240234376,59.44324624023437,51.29634624023438L61.157146240234376,52.32714624023438ZM62.12044624023437,50.57564624023438Q61.896646240234375,51.02264624023437,61.65574624023437,51.46054624023437L59.90334624023438,50.49674624023437Q60.125646240234374,50.09264624023437,60.33214624023437,49.680246240234375L62.12044624023437,50.57564624023438ZM62.94594624023438,48.75404624023437Q62.757946240234375,49.215546240234374,62.55234624023438,49.669546240234375L60.730546240234375,48.844246240234376Q60.92024624023438,48.42544624023437,61.093746240234374,47.99954624023437L62.94594624023438,48.75404624023437ZM63.62964624023437,46.86974624023438Q63.477346240234375,47.34644624023438,63.30664624023437,47.81694624023437L61.42654624023437,47.13494624023438Q61.583946240234376,46.70084624023438,61.724546240234375,46.260946240234375L63.62964624023437,46.86974624023438ZM64.16474624023436,44.94014624023438Q64.04914624023438,45.42994624023437,63.91454624023437,45.914846240234375L61.98744624023438,45.379946240234375Q62.111546240234375,44.93254624023437,62.21824624023437,44.480746240234375L64.16474624023436,44.94014624023438ZM64.54854624023437,42.97764624023438Q64.47124624023436,43.474146240234376,64.37474624023437,43.96734624023438L62.41194624023438,43.58314624023437Q62.50104624023437,43.12814624023437,62.572346240234374,42.669946240234374L64.54854624023437,42.97764624023438ZM64.77934624023437,40.993846240234376Q64.74094624023436,41.49114624023437,64.68324624023438,41.986746240234375L62.69664624023437,41.75564624023437Q62.749846240234376,41.29844624023438,62.785346240234375,40.83964624023437L64.77934624023437,40.993846240234376ZM64.85344624023438,38.61104624023437Q64.85634624023437,38.80554624023438,64.85634624023437,39.000046240234376Q64.85634624023437,39.49524624023438,64.83734624023438,39.990146240234374L62.838846240234375,39.913546240234375Q62.85634624023437,39.45694624023437,62.85634624023437,39.000046240234376Q62.85634624023437,38.820646240234375,62.853646240234376,38.64114624023438L64.85344624023438,38.61104624023437ZM64.74554624023438,36.60904624023438Q64.79224624023438,37.11144624023437,64.81924624023438,37.61534624023437L62.822146240234375,37.72234624023437Q62.797146240234376,37.257546240234376,62.75414624023438,36.79404624023438L64.74554624023438,36.60904624023438ZM64.48424624023437,34.62944624023437Q64.56924624023438,35.124846240234376,64.63494624023437,35.62314624023438L62.65204624023438,35.88434624023438Q62.591446240234376,35.424646240234374,62.513046240234374,34.96754624023437L64.48424624023437,34.62944624023437ZM64.07084624023437,32.675346240234376Q64.19314624023437,33.16004624023438,64.29664624023437,33.64914624023437L62.339946240234376,34.06304624023437Q62.244446240234375,33.611746240234375,62.131646240234375,33.16454624023437L64.07084624023437,32.675346240234376ZM63.506846240234374,30.756046240234376Q63.66554624023438,31.227746240234374,63.80594624023438,31.705146240234374L61.887246240234376,32.26944624023437Q61.75764624023437,31.828946240234377,61.61124624023437,31.393746240234375L63.506846240234374,30.756046240234376ZM62.795146240234374,28.883646240234377Q62.99074624023437,29.343546240234375,63.168246240234375,29.810646240234377L61.298846240234376,30.521346240234376Q61.13494624023438,30.090446240234375,60.954646240234375,29.666246240234376L62.795146240234374,28.883646240234377ZM61.94004624023437,27.070846240234374Q62.17194624023438,27.516846240234376,62.38644624023438,27.971546240234375L60.57744624023437,28.824646240234372Q60.37964624023437,28.405146240234373,60.16564624023437,27.993546240234373L61.94004624023437,27.070846240234374ZM60.95044624023438,25.335146240234373Q61.21524624023437,25.760446240234373,61.46334624023437,26.195646240234375L59.72574624023437,27.186146240234375Q59.496846240234376,26.784546240234377,59.25254624023437,26.392146240234375L60.95044624023438,25.335146240234373ZM59.82824624023438,23.678946240234374Q60.124346240234374,24.081546240234374,60.404746240234374,24.495246240234373L58.74904624023438,25.617146240234376Q58.49034624023437,25.235446240234374,58.21714624023438,24.864046240234373L59.82824624023438,23.678946240234374ZM58.58034624023438,22.113276240234377Q58.90704624023437,22.492096240234375,59.21884624023438,22.883276240234373L57.65494624023437,24.129946240234375Q57.36724624023437,23.768946240234374,57.065746240234375,23.419446240234375L58.58034624023438,22.113276240234377ZM57.21564624023438,20.649456240234375Q57.57094624023438,21.002176240234377,57.91234624023438,21.368406240234375L56.449546240234376,22.732216240234376Q56.134446240234375,22.394316240234375,55.80664624023437,22.068866240234374L57.21564624023438,20.649456240234375ZM55.74194624023438,19.295746240234376Q56.12314624023438,19.619656240234374,56.49154624023438,19.958066240234373L55.13864624023437,21.430956240234373Q54.79874624023437,21.118736240234377,54.446946240234375,20.819896240234375L55.74194624023438,19.295746240234376ZM54.16704624023438,18.059306240234374Q54.57274624023437,18.353156240234377,54.96674624023437,18.662516240234375L53.73174624023437,20.235626240234375Q53.368146240234374,19.950206240234376,52.993846240234376,19.679076240234373L54.16704624023438,18.059306240234374ZM52.50204624023438,16.949036240234374Q52.929846240234376,17.210936240234375,53.34704624023438,17.489236240234376L52.23734624023437,19.153096240234376Q51.852346240234375,18.896326240234373,51.457646240234375,18.654696240234376L52.50204624023438,16.949036240234374ZM50.75914624023437,15.972316240234374Q51.203346240234374,16.199186240234376,51.638546240234376,16.443026240234374L50.660946240234374,18.187816240234376Q50.259446240234375,17.962836240234374,49.849546240234375,17.753516240234376L50.75914624023437,15.972316240234374ZM48.94144624023438,15.131236240234376Q49.402246240234376,15.323156240234376,49.855346240234375,15.532716240234375L49.015646240234375,17.347926240234376Q48.597646240234376,17.154576240234377,48.172546240234375,16.977496240234373L48.94144624023438,15.131236240234376ZM47.063346240234374,14.433066240234375Q47.539646240234376,14.589416240234375,48.009646240234375,14.764116240234376L47.312746240234375,16.638776240234375Q46.87914624023438,16.477586240234373,46.439646240234374,16.333326240234374L47.063346240234374,14.433066240234375ZM45.138946240234375,13.882991240234375Q45.628846240234374,14.002724240234375,46.113646240234374,14.141469240234375L45.56344624023438,16.064286240234374Q45.11614624023437,15.936276240234374,44.66414624023437,15.825806240234375L45.138946240234375,13.882991240234375ZM43.180646240234374,13.483870240234374Q43.67484624023437,13.564842240234375,44.16554624023438,13.664889240234375L43.766046240234374,15.624566240234374Q43.31324624023438,15.532266240234375,42.85734624023438,15.457556240234375L43.180646240234374,13.483870240234374ZM41.200146240234375,13.237420440234375Q41.69514624023438,13.279698240234374,42.18824624023438,13.340963240234375L41.94164624023438,15.325696240234375Q41.486746240234375,15.269176240234374,41.02994624023437,15.230166240234375L41.200146240234375,13.237420440234375ZM40.19384624023438,13.171223440234375L40.10154624023437,15.169086240234375Q39.643646240234375,15.147926240234375,39.18524624023438,15.144366240234374L39.20084624023438,13.144426119234375Q39.69764624023438,13.148284650234375,40.19384624023438,13.171223440234375Z" fill-rule="evenodd" fill="#00E0DB" fill-opacity="1"/></g><g style="opacity:0.20000000298023224;mix-blend-mode:passthrough"><ellipse cx="39" cy="39" rx="25.5" ry="25.5" fill-opacity="0" stroke-opacity="0.20000000298023224" stroke="#00E0DB" fill="none" stroke-width="1"/></g></g><g style="mix-blend-mode:passthrough"><g style="mix-blend-mode:passthrough"/></g></g><script xmlns=""/></svg>